<svg xmlns="http://www.w3.org/2000/svg" xmlns:xlink="http://www.w3.org/1999/xlink" width="2000" zoomAndPan="magnify" viewBox="0 0 1500 1499.999933" height="2000" preserveAspectRatio="xMidYMid meet" version="1.0"><defs><g/><clipPath id="2383b7bc1b"><rect x="0" width="1500" y="0" height="1174"/></clipPath></defs><g transform="matrix(1, 0, 0, 1, 0, 163)"><g clip-path="url(#2383b7bc1b)"><g fill="#a180be" fill-opacity="1"><g transform="translate(0.00003335, 948.139887)"><g><path d="M 388.703125 13.234375 C 328.179688 13.234375 275.851562 3.148438 231.71875 -17.015625 C 187.582031 -37.191406 151.007812 -64.9375 122 -100.25 C 93 -135.5625 71.5625 -175.597656 57.6875 -220.359375 C 43.820312 -265.128906 36.890625 -312.101562 36.890625 -361.28125 C 36.890625 -410.457031 43.820312 -457.425781 57.6875 -502.1875 C 71.5625 -546.957031 93 -586.835938 122 -621.828125 C 151.007812 -656.828125 187.582031 -684.414062 231.71875 -704.59375 C 275.851562 -724.769531 328.179688 -734.859375 388.703125 -734.859375 C 482.023438 -734.859375 556.269531 -712.789062 611.4375 -668.65625 C 666.601562 -624.519531 701.4375 -566.828125 715.9375 -495.578125 L 566.515625 -495.578125 C 554.535156 -532.773438 533.726562 -561.617188 504.09375 -582.109375 C 474.457031 -602.609375 435.679688 -612.859375 387.765625 -612.859375 C 341.734375 -612.859375 303.269531 -601.820312 272.375 -579.75 C 241.476562 -557.6875 218.148438 -527.738281 202.390625 -489.90625 C 186.628906 -452.070312 178.75 -409.515625 178.75 -362.234375 C 178.75 -313.679688 186.941406 -270.332031 203.328125 -232.1875 C 219.722656 -194.039062 244.316406 -163.929688 277.109375 -141.859375 C 309.898438 -119.796875 350.882812 -108.765625 400.0625 -108.765625 C 456.800781 -108.765625 501.878906 -123.109375 535.296875 -151.796875 C 568.710938 -180.484375 586.054688 -223.203125 587.328125 -279.953125 L 427.484375 -279.953125 L 427.484375 -392.5 L 722.5625 -392.5 L 722.5625 0 L 598.671875 0 L 598.671875 -81.328125 C 573.453125 -45.390625 541.769531 -20.644531 503.625 -7.09375 C 465.476562 6.457031 427.171875 13.234375 388.703125 13.234375 Z M 388.703125 13.234375 "/></g></g></g><g fill="#a180be" fill-opacity="1"><g transform="translate(774.580352, 948.139887)"><g><path d="M 386.8125 13.234375 C 326.914062 13.234375 275.054688 3.148438 231.234375 -17.015625 C 187.421875 -37.191406 151.164062 -64.617188 122.46875 -99.296875 C 93.78125 -133.984375 72.34375 -173.863281 58.15625 -218.9375 C 43.976562 -264.019531 36.890625 -311.46875 36.890625 -361.28125 C 36.890625 -411.09375 43.976562 -458.539062 58.15625 -503.625 C 72.34375 -548.707031 93.78125 -588.585938 122.46875 -623.265625 C 151.164062 -657.941406 187.421875 -685.207031 231.234375 -705.0625 C 275.054688 -724.925781 326.914062 -734.859375 386.8125 -734.859375 C 446.082031 -734.859375 497.46875 -724.769531 540.96875 -704.59375 C 584.476562 -684.414062 619.15625 -656.359375 645 -620.421875 C 670.851562 -584.484375 686.9375 -542.867188 693.25 -495.578125 L 544.765625 -495.578125 C 538.453125 -534.035156 520.632812 -563.195312 491.3125 -583.0625 C 462 -602.925781 425.90625 -612.859375 383.03125 -612.859375 C 338.894531 -612.859375 301.691406 -602.296875 271.421875 -581.171875 C 241.160156 -560.046875 218.148438 -530.566406 202.390625 -492.734375 C 186.628906 -454.910156 178.75 -411.09375 178.75 -361.28125 C 178.75 -311.46875 186.628906 -267.488281 202.390625 -229.34375 C 218.148438 -191.195312 241.160156 -161.5625 271.421875 -140.4375 C 301.691406 -119.320312 338.894531 -108.765625 383.03125 -108.765625 C 425.90625 -108.765625 461.84375 -119.164062 490.84375 -139.96875 C 519.851562 -160.78125 537.828125 -192.304688 544.765625 -234.546875 L 693.25 -234.546875 C 686.9375 -184.734375 670.851562 -141.226562 645 -104.03125 C 619.15625 -66.832031 584.476562 -37.988281 540.96875 -17.5 C 497.46875 2.988281 446.082031 13.234375 386.8125 13.234375 Z M 386.8125 13.234375 "/></g></g></g></g></g></svg>